<svg width="45" height="45" viewBox="0 0 45 45" fill="none" xmlns="http://www.w3.org/2000/svg">
<path d="M22.5 0L33.4521 5.63646L44.4501 11.2271L33.4521 16.8635L22.5 22.5L11.5479 16.8635L0.549889 11.2271L11.5479 5.63646L22.5 0Z" fill="#D9AC80"/>
<path d="M36.2016 20.5754V15.4888L30.7026 18.2841V23.3707L33.727 19.6589L36.2016 20.5754Z" fill="#D7BAA4"/>
<path d="M22.5 22.5V45L44.4502 33.7729V11.2271L36.2017 15.4888L36.0184 15.5805V20.5296L33.7271 19.6589L30.7027 23.3707V18.2841L22.5 22.5Z" fill="#A67E4F"/>
<path d="M22.5 45V22.5L11.5478 16.8636L0.549889 11.2271V33.7729L22.5 45Z" fill="#926E43"/>
<path d="M8.79843 7.0112L30.7027 18.2841L36.0184 15.5804L36.2017 15.4888L14.2974 4.21588L11.5479 5.63645L8.79843 7.0112Z" fill="#F2D3BA"/>
</svg>
