<svg width="41" height="45" viewBox="0 0 41 45" fill="none" xmlns="http://www.w3.org/2000/svg">
<path d="M40.5713 12.7851H0.428711V45H40.5713V12.7851Z" fill="#A67E4F"/>
<path d="M5.56109 0H20.5H35.4389L40.5713 12.7851H20.5H0.428711L5.56109 0Z" fill="#D9AC80"/>
<path d="M18.4837 0H22.5163L23.5245 12.7851H17.4756L18.4837 0Z" fill="#F2D3BA"/>
<path d="M23.5245 17.9175V12.7851H17.4756V17.9175L18.8045 16.9093L20.5 15.5804L22.1956 16.9093L23.5245 17.9175Z" fill="#D7BAA4"/>
<path d="M23.5245 39.9135V45H17.4756V39.9135L18.8045 40.9216L20.5 42.2505L22.1956 40.9216L23.5245 39.9135Z" fill="#D7BAA4"/>
<path d="M15.5051 27.4033H25.4491C26.2739 27.4033 26.9613 28.0907 26.9613 28.9155C26.9613 29.7404 26.2739 30.4277 25.4491 30.4277H15.5051C14.6802 30.4277 13.9929 29.7404 13.9929 28.9155C13.9929 28.0448 14.6802 27.4033 15.5051 27.4033Z" fill="#643513"/>
</svg>
