<svg width="45" height="41" viewBox="0 0 45 41" fill="none" xmlns="http://www.w3.org/2000/svg">
<path d="M40.3578 9.29199V32.2939H37.1793C36.5938 32.0011 35.9247 31.8338 35.2555 31.8338C34.5446 31.8338 33.8754 32.0011 33.3317 32.2939H17.4395C16.854 32.0011 16.1849 31.8338 15.5158 31.8338C15.2648 31.8338 15.0139 31.8756 14.763 31.8756V9.29199H40.3578Z" fill="#A67E4F"/>
<path d="M41.8215 4.27335H13.2992V9.33375H41.8215V4.27335Z" fill="#A67E4F"/>
<path d="M24.2985 12.7631H30.8226C31.3663 12.7631 31.8264 13.2231 31.8264 13.7668C31.8264 14.3105 31.3663 14.7705 30.8226 14.7705H24.2985C23.7548 14.7705 23.2948 14.3105 23.2948 13.7668C23.2948 13.2231 23.713 12.7631 24.2985 12.7631Z" fill="#643513"/>
<path d="M37.1794 32.3356H43.0344C44.1217 32.3356 45 33.2138 45 34.3012C45 35.3885 44.1217 36.2668 43.0344 36.2668H39.5214V36.1832C39.5214 34.5103 38.5595 33.0465 37.1794 32.3356ZM17.4396 32.3356H33.29C31.9099 33.0465 30.948 34.5103 30.948 36.1832V36.2668H19.7816V36.1832C19.7816 34.5103 18.8197 33.0465 17.4396 32.3356ZM6.35687 34.3012V2.47498C6.35687 1.38762 7.23513 0.509369 8.32249 0.509369C9.40985 0.509369 10.2881 1.38762 10.2881 2.47498V32.3356H13.5502C12.1701 33.0465 11.2082 34.5103 11.2082 36.1832V36.2668H8.32249C7.23513 36.2668 6.35687 35.3885 6.35687 34.3012Z" fill="#D9AC80"/>
<path d="M0 2.47498C0 1.38762 0.878253 0.509369 1.96561 0.509369H8.32249C9.40985 0.509369 10.2881 1.38762 10.2881 2.47498C10.2881 3.56234 9.40985 4.4406 8.32249 4.4406H1.96561C0.878253 4.4406 0 3.56234 0 2.47498Z" fill="#D9AC80"/>
<path d="M15.4741 40.4908C17.8531 40.4908 19.7817 38.5622 19.7817 36.1832C19.7817 33.8041 17.8531 31.8755 15.4741 31.8755C13.0951 31.8755 11.1665 33.8041 11.1665 36.1832C11.1665 38.5622 13.0951 40.4908 15.4741 40.4908Z" fill="#8D5122"/>
<path d="M15.4739 38.1488C16.5595 38.1488 17.4395 37.2688 17.4395 36.1832C17.4395 35.0976 16.5595 34.2176 15.4739 34.2176C14.3883 34.2176 13.5083 35.0976 13.5083 36.1832C13.5083 37.2688 14.3883 38.1488 15.4739 38.1488Z" fill="#643513"/>
<path d="M35.2138 40.4908C37.5929 40.4908 39.5215 38.5622 39.5215 36.1832C39.5215 33.8041 37.5929 31.8755 35.2138 31.8755C32.8348 31.8755 30.9062 33.8041 30.9062 36.1832C30.9062 38.5622 32.8348 40.4908 35.2138 40.4908Z" fill="#8D5122"/>
<path d="M35.2137 38.1488C36.2993 38.1488 37.1794 37.2688 37.1794 36.1832C37.1794 35.0976 36.2993 34.2176 35.2137 34.2176C34.1282 34.2176 33.2481 35.0976 33.2481 36.1832C33.2481 37.2688 34.1282 38.1488 35.2137 38.1488Z" fill="#643513"/>
<path d="M40.3578 9.29182H14.763V10.5465H40.3578V9.29182Z" fill="#926E43"/>
</svg>
