<svg width="21" height="22" viewBox="0 0 21 22" fill="none" xmlns="http://www.w3.org/2000/svg">
<path d="M14.99 14.5V12.75L12.5 15.25L14.99 17.75V16H20.5V14.5H14.99ZM18.01 18.75H12.5V20.25H18.01V22L20.5 19.5L18.01 17V18.75ZM8 4.5C9.1 4.5 10 3.6 10 2.5C10 1.4 9.1 0.5 8 0.5C6.9 0.5 6 1.4 6 2.5C6 3.6 6.9 4.5 8 4.5ZM4.25 7.9L1.5 22H3.6L5.35 14L7.5 16V22H9.5V14.45L7.45 12.4L8.05 9.4C9.35 11 11.3 12 13.5 12V10C11.65 10 10.05 9 9.15 7.55L8.2 5.95C7.85 5.35 7.2 5 6.5 5C6.25 5 6 5.05 5.75 5.15L0.5 7.3V12H2.5V8.65L4.25 7.9Z" fill="#A5A5A4"/>
</svg>
